<mxfile host="Electron" modified="2024-03-13T18:40:41.848Z" agent="Mozilla/5.0 (Windows NT 10.0; Win64; x64) AppleWebKit/537.36 (KHTML, like Gecko) draw.io/22.1.18 Chrome/120.0.6099.199 Electron/28.1.2 Safari/537.36" etag="gOccAtXMECn1sPplSziT" version="22.1.18" type="device">
  <diagram name="diskgolf" id="4mIy0oLyCDjw7NjgL782">
    <mxGraphModel dx="1293" dy="639" grid="1" gridSize="10" guides="1" tooltips="1" connect="1" arrows="1" fold="1" page="1" pageScale="1" pageWidth="827" pageHeight="1169" math="0" shadow="0">
      <root>
        <mxCell id="0" />
        <mxCell id="1" parent="0" />
        <mxCell id="wdhOgHoAEp7qNPRTfiSG-1" value="Frisbee" style="swimlane;fontStyle=1;align=center;verticalAlign=top;childLayout=stackLayout;horizontal=1;startSize=26;horizontalStack=0;resizeParent=1;resizeParentMax=0;resizeLast=0;collapsible=1;marginBottom=0;whiteSpace=wrap;html=1;" vertex="1" parent="1">
          <mxGeometry x="10" y="320" width="160" height="146" as="geometry" />
        </mxCell>
        <mxCell id="wdhOgHoAEp7qNPRTfiSG-11" value="x: int&lt;br&gt;y: int&amp;nbsp;" style="text;html=1;align=left;verticalAlign=middle;resizable=0;points=[];autosize=1;strokeColor=none;fillColor=none;" vertex="1" parent="wdhOgHoAEp7qNPRTfiSG-1">
          <mxGeometry y="26" width="160" height="40" as="geometry" />
        </mxCell>
        <mxCell id="wdhOgHoAEp7qNPRTfiSG-3" value="&#xa;&#xa;" style="line;strokeWidth=1;fillColor=none;align=left;verticalAlign=middle;spacingTop=-1;spacingLeft=3;spacingRight=3;rotatable=0;labelPosition=right;points=[];portConstraint=eastwest;strokeColor=inherit;" vertex="1" parent="wdhOgHoAEp7qNPRTfiSG-1">
          <mxGeometry y="66" width="160" height="10" as="geometry" />
        </mxCell>
        <mxCell id="wdhOgHoAEp7qNPRTfiSG-4" value="update()&amp;nbsp;&lt;br&gt;move(delta)&amp;nbsp;&lt;br&gt;displayThrows()&lt;br&gt;newMap()" style="text;strokeColor=none;fillColor=none;align=left;verticalAlign=top;spacingLeft=4;spacingRight=4;overflow=hidden;rotatable=0;points=[[0,0.5],[1,0.5]];portConstraint=eastwest;whiteSpace=wrap;html=1;" vertex="1" parent="wdhOgHoAEp7qNPRTfiSG-1">
          <mxGeometry y="76" width="160" height="70" as="geometry" />
        </mxCell>
        <mxCell id="wdhOgHoAEp7qNPRTfiSG-6" value="Tree" style="swimlane;fontStyle=1;align=center;verticalAlign=top;childLayout=stackLayout;horizontal=1;startSize=26;horizontalStack=0;resizeParent=1;resizeParentMax=0;resizeLast=0;collapsible=1;marginBottom=0;whiteSpace=wrap;html=1;" vertex="1" parent="1">
          <mxGeometry x="220" y="320" width="160" height="110" as="geometry" />
        </mxCell>
        <mxCell id="wdhOgHoAEp7qNPRTfiSG-7" value="x: int&lt;br&gt;y: int&lt;br&gt;w: int&amp;nbsp;&lt;br&gt;h: int" style="text;strokeColor=none;fillColor=none;align=left;verticalAlign=top;spacingLeft=4;spacingRight=4;overflow=hidden;rotatable=0;points=[[0,0.5],[1,0.5]];portConstraint=eastwest;whiteSpace=wrap;html=1;" vertex="1" parent="wdhOgHoAEp7qNPRTfiSG-6">
          <mxGeometry y="26" width="160" height="74" as="geometry" />
        </mxCell>
        <mxCell id="wdhOgHoAEp7qNPRTfiSG-8" value="" style="line;strokeWidth=1;fillColor=none;align=left;verticalAlign=middle;spacingTop=-1;spacingLeft=3;spacingRight=3;rotatable=0;labelPosition=right;points=[];portConstraint=eastwest;strokeColor=inherit;" vertex="1" parent="wdhOgHoAEp7qNPRTfiSG-6">
          <mxGeometry y="100" width="160" height="10" as="geometry" />
        </mxCell>
        <mxCell id="wdhOgHoAEp7qNPRTfiSG-12" value="Game" style="swimlane;fontStyle=1;align=center;verticalAlign=top;childLayout=stackLayout;horizontal=1;startSize=26;horizontalStack=0;resizeParent=1;resizeParentMax=0;resizeLast=0;collapsible=1;marginBottom=0;whiteSpace=wrap;html=1;" vertex="1" parent="1">
          <mxGeometry x="334" y="10" width="160" height="210" as="geometry" />
        </mxCell>
        <mxCell id="wdhOgHoAEp7qNPRTfiSG-13" value="screen: surface&amp;nbsp;&lt;br&gt;clock:&amp;nbsp;&lt;br&gt;running: boolean&amp;nbsp;" style="text;strokeColor=none;fillColor=none;align=left;verticalAlign=top;spacingLeft=4;spacingRight=4;overflow=hidden;rotatable=0;points=[[0,0.5],[1,0.5]];portConstraint=eastwest;whiteSpace=wrap;html=1;" vertex="1" parent="wdhOgHoAEp7qNPRTfiSG-12">
          <mxGeometry y="26" width="160" height="54" as="geometry" />
        </mxCell>
        <mxCell id="wdhOgHoAEp7qNPRTfiSG-14" value="" style="line;strokeWidth=1;fillColor=none;align=left;verticalAlign=middle;spacingTop=-1;spacingLeft=3;spacingRight=3;rotatable=0;labelPosition=right;points=[];portConstraint=eastwest;strokeColor=inherit;" vertex="1" parent="wdhOgHoAEp7qNPRTfiSG-12">
          <mxGeometry y="80" width="160" height="8" as="geometry" />
        </mxCell>
        <mxCell id="wdhOgHoAEp7qNPRTfiSG-15" value="new()&lt;br&gt;run()&lt;br&gt;events()&lt;br&gt;update(delta)&lt;br&gt;checkCollision()&lt;br&gt;draw()&lt;br&gt;newMap()" style="text;strokeColor=none;fillColor=none;align=left;verticalAlign=top;spacingLeft=4;spacingRight=4;overflow=hidden;rotatable=0;points=[[0,0.5],[1,0.5]];portConstraint=eastwest;whiteSpace=wrap;html=1;" vertex="1" parent="wdhOgHoAEp7qNPRTfiSG-12">
          <mxGeometry y="88" width="160" height="122" as="geometry" />
        </mxCell>
        <mxCell id="wdhOgHoAEp7qNPRTfiSG-23" value="" style="endArrow=diamondThin;endFill=0;endSize=24;html=1;rounded=0;entryX=0.591;entryY=1.036;entryDx=0;entryDy=0;entryPerimeter=0;exitX=0.5;exitY=0;exitDx=0;exitDy=0;" edge="1" parent="1" source="wdhOgHoAEp7qNPRTfiSG-1" target="wdhOgHoAEp7qNPRTfiSG-15">
          <mxGeometry width="160" relative="1" as="geometry">
            <mxPoint x="90" y="260" as="sourcePoint" />
            <mxPoint x="440" y="260" as="targetPoint" />
            <Array as="points">
              <mxPoint x="90" y="260" />
              <mxPoint x="430" y="260" />
            </Array>
          </mxGeometry>
        </mxCell>
        <mxCell id="wdhOgHoAEp7qNPRTfiSG-25" value="" style="endArrow=none;html=1;rounded=0;" edge="1" parent="1">
          <mxGeometry width="50" height="50" relative="1" as="geometry">
            <mxPoint x="300" y="320" as="sourcePoint" />
            <mxPoint x="300" y="260" as="targetPoint" />
          </mxGeometry>
        </mxCell>
        <mxCell id="wdhOgHoAEp7qNPRTfiSG-30" value="Path" style="swimlane;fontStyle=1;align=center;verticalAlign=top;childLayout=stackLayout;horizontal=1;startSize=26;horizontalStack=0;resizeParent=1;resizeParentMax=0;resizeLast=0;collapsible=1;marginBottom=0;whiteSpace=wrap;html=1;" vertex="1" parent="1">
          <mxGeometry x="440" y="320" width="160" height="124" as="geometry" />
        </mxCell>
        <mxCell id="wdhOgHoAEp7qNPRTfiSG-31" value="w: int&amp;nbsp;&lt;br&gt;h: int&amp;nbsp;&lt;br&gt;x: int&amp;nbsp;&lt;br&gt;y: int" style="text;strokeColor=none;fillColor=none;align=left;verticalAlign=top;spacingLeft=4;spacingRight=4;overflow=hidden;rotatable=0;points=[[0,0.5],[1,0.5]];portConstraint=eastwest;whiteSpace=wrap;html=1;" vertex="1" parent="wdhOgHoAEp7qNPRTfiSG-30">
          <mxGeometry y="26" width="160" height="64" as="geometry" />
        </mxCell>
        <mxCell id="wdhOgHoAEp7qNPRTfiSG-32" value="" style="line;strokeWidth=1;fillColor=none;align=left;verticalAlign=middle;spacingTop=-1;spacingLeft=3;spacingRight=3;rotatable=0;labelPosition=right;points=[];portConstraint=eastwest;strokeColor=inherit;" vertex="1" parent="wdhOgHoAEp7qNPRTfiSG-30">
          <mxGeometry y="90" width="160" height="8" as="geometry" />
        </mxCell>
        <mxCell id="wdhOgHoAEp7qNPRTfiSG-33" value="newMap()" style="text;strokeColor=none;fillColor=none;align=left;verticalAlign=top;spacingLeft=4;spacingRight=4;overflow=hidden;rotatable=0;points=[[0,0.5],[1,0.5]];portConstraint=eastwest;whiteSpace=wrap;html=1;" vertex="1" parent="wdhOgHoAEp7qNPRTfiSG-30">
          <mxGeometry y="98" width="160" height="26" as="geometry" />
        </mxCell>
        <mxCell id="wdhOgHoAEp7qNPRTfiSG-34" value="Basket" style="swimlane;fontStyle=1;align=center;verticalAlign=top;childLayout=stackLayout;horizontal=1;startSize=26;horizontalStack=0;resizeParent=1;resizeParentMax=0;resizeLast=0;collapsible=1;marginBottom=0;whiteSpace=wrap;html=1;" vertex="1" parent="1">
          <mxGeometry x="640" y="320" width="160" height="140" as="geometry" />
        </mxCell>
        <mxCell id="wdhOgHoAEp7qNPRTfiSG-35" value="x: int&amp;nbsp;&lt;br&gt;y: int&lt;br&gt;r: int" style="text;strokeColor=none;fillColor=none;align=left;verticalAlign=top;spacingLeft=4;spacingRight=4;overflow=hidden;rotatable=0;points=[[0,0.5],[1,0.5]];portConstraint=eastwest;whiteSpace=wrap;html=1;" vertex="1" parent="wdhOgHoAEp7qNPRTfiSG-34">
          <mxGeometry y="26" width="160" height="64" as="geometry" />
        </mxCell>
        <mxCell id="wdhOgHoAEp7qNPRTfiSG-36" value="" style="line;strokeWidth=1;fillColor=none;align=left;verticalAlign=middle;spacingTop=-1;spacingLeft=3;spacingRight=3;rotatable=0;labelPosition=right;points=[];portConstraint=eastwest;strokeColor=inherit;" vertex="1" parent="wdhOgHoAEp7qNPRTfiSG-34">
          <mxGeometry y="90" width="160" height="8" as="geometry" />
        </mxCell>
        <mxCell id="wdhOgHoAEp7qNPRTfiSG-37" value="displayHole()&lt;br&gt;newMap()" style="text;strokeColor=none;fillColor=none;align=left;verticalAlign=top;spacingLeft=4;spacingRight=4;overflow=hidden;rotatable=0;points=[[0,0.5],[1,0.5]];portConstraint=eastwest;whiteSpace=wrap;html=1;" vertex="1" parent="wdhOgHoAEp7qNPRTfiSG-34">
          <mxGeometry y="98" width="160" height="42" as="geometry" />
        </mxCell>
        <mxCell id="wdhOgHoAEp7qNPRTfiSG-39" value="" style="endArrow=none;html=1;rounded=0;fontFamily=Helvetica;fontSize=12;fontColor=default;startSize=26;exitX=0.5;exitY=0;exitDx=0;exitDy=0;" edge="1" parent="1" source="wdhOgHoAEp7qNPRTfiSG-34">
          <mxGeometry width="50" height="50" relative="1" as="geometry">
            <mxPoint x="670" y="310" as="sourcePoint" />
            <mxPoint x="720" y="260" as="targetPoint" />
          </mxGeometry>
        </mxCell>
        <mxCell id="wdhOgHoAEp7qNPRTfiSG-40" value="" style="endArrow=none;html=1;rounded=0;fontFamily=Helvetica;fontSize=12;fontColor=default;startSize=26;" edge="1" parent="1">
          <mxGeometry width="50" height="50" relative="1" as="geometry">
            <mxPoint x="430" y="260" as="sourcePoint" />
            <mxPoint x="720" y="260" as="targetPoint" />
            <Array as="points" />
          </mxGeometry>
        </mxCell>
        <mxCell id="wdhOgHoAEp7qNPRTfiSG-41" value="" style="endArrow=none;html=1;rounded=0;fontFamily=Helvetica;fontSize=12;fontColor=default;startSize=26;" edge="1" parent="1">
          <mxGeometry width="50" height="50" relative="1" as="geometry">
            <mxPoint x="520" y="320" as="sourcePoint" />
            <mxPoint x="520" y="260" as="targetPoint" />
          </mxGeometry>
        </mxCell>
      </root>
    </mxGraphModel>
  </diagram>
</mxfile>
